<svg width="46" height="48" viewBox="0 0 46 48" fill="none" xmlns="http://www.w3.org/2000/svg">
<g clip-path="url(#clip0_108_6157)">
<g clip-path="url(#clip1_108_6157)">
<g clip-path="url(#clip2_108_6157)">
<path fill-rule="evenodd" clip-rule="evenodd" d="M45 24H27C26.7348 24 26.4804 23.8946 26.2928 23.707C26.1053 23.5195 26 23.2652 26 23C26 22.7348 26.1053 22.4805 26.2928 22.293C26.4804 22.1054 26.7348 22 27 22H45C45.2652 22 45.5196 22.1054 45.7072 22.293C45.8947 22.4805 46 22.7348 46 23C46 23.2652 45.8947 23.5195 45.7072 23.707C45.5196 23.8946 45.2652 24 45 24ZM35.71 15.7C35.6175 15.7966 35.5048 15.8717 35.38 15.9199C35.2603 15.9727 35.1309 16 35 16C34.8691 16 34.7397 15.9727 34.62 15.9199C34.4952 15.8717 34.3825 15.7966 34.29 15.7L30.29 11.7C30.1038 11.5126 29.9993 11.2593 29.9993 10.9951C29.9993 10.7309 30.1038 10.4774 30.29 10.29C30.4788 10.1027 30.734 9.99756 31 9.99756C31.266 9.99756 31.5212 10.1027 31.71 10.29L34 12.5801V5C34 4.73478 34.1053 4.4805 34.2928 4.29297C34.4804 4.10543 34.7348 4 35 4C35.2652 4 35.5196 4.10543 35.7072 4.29297C35.8947 4.4805 36 4.73478 36 5V12.5801L38.29 10.29C38.4788 10.1027 38.734 9.99756 39 9.99756C39.266 9.99756 39.5212 10.1027 39.71 10.29C39.8962 10.4774 40.0007 10.7309 40.0007 10.9951C40.0007 11.2593 39.8962 11.5126 39.71 11.7L35.71 15.7ZM23.71 15.7C23.6175 15.7966 23.5048 15.8717 23.38 15.9199C23.2603 15.9727 23.1309 16 23 16C22.8691 16 22.7397 15.9727 22.62 15.9199C22.4952 15.8717 22.3825 15.7966 22.29 15.7L18.29 11.7C18.1038 11.5126 17.9993 11.2593 17.9993 10.9951C17.9993 10.7309 18.1038 10.4774 18.29 10.29C18.4788 10.1027 18.734 9.99756 19 9.99756C19.266 9.99756 19.5212 10.1027 19.71 10.29L22 12.5801V1C22 0.734784 22.1053 0.480505 22.2928 0.292969C22.4804 0.105432 22.7348 0 23 0C23.2652 0 23.5196 0.105432 23.7072 0.292969C23.8947 0.480505 24 0.734784 24 1V12.5801L26.29 10.29C26.4788 10.1027 26.734 9.99756 27 9.99756C27.266 9.99756 27.5212 10.1027 27.71 10.29C27.8962 10.4774 28.0007 10.7309 28.0007 10.9951C28.0007 11.2593 27.8962 11.5126 27.71 11.7L23.71 15.7ZM11.71 15.7C11.6175 15.7966 11.5048 15.8717 11.38 15.9199C11.2603 15.9727 11.1309 16 11 16C10.8691 16 10.7397 15.9727 10.62 15.9199C10.4952 15.8717 10.3825 15.7966 10.29 15.7L6.29004 11.7C6.10379 11.5126 5.99927 11.2593 5.99927 10.9951C5.99927 10.7309 6.10379 10.4774 6.29004 10.29C6.47885 10.1027 6.73401 9.99756 7 9.99756C7.26599 9.99756 7.52115 10.1027 7.70996 10.29L10 12.5801V5C10 4.73478 10.1053 4.4805 10.2928 4.29297C10.4804 4.10543 10.7348 4 11 4C11.2652 4 11.5196 4.10543 11.7072 4.29297C11.8947 4.4805 12 4.73478 12 5V12.5801L14.29 10.29C14.4788 10.1027 14.734 9.99756 15 9.99756C15.266 9.99756 15.5212 10.1027 15.71 10.29C15.8962 10.4774 16.0007 10.7309 16.0007 10.9951C16.0007 11.2593 15.8962 11.5126 15.71 11.7L11.71 15.7ZM22 23C22 23.2652 21.8947 23.5195 21.7072 23.707C21.5196 23.8946 21.2652 24 21 24H5C4.73478 24 4.48038 23.8946 4.29285 23.707C4.10531 23.5195 4 23.2652 4 23C4 22.7348 4.10531 22.4805 4.29285 22.293C4.48038 22.1054 4.73478 22 5 22H21C21.2652 22 21.5196 22.1054 21.7072 22.293C21.8947 22.4805 22 22.7348 22 23ZM14 29C14 29.2652 13.8947 29.5195 13.7072 29.707C13.5196 29.8946 13.2652 30 13 30H1C0.734784 30 0.480383 29.8946 0.292847 29.707C0.10531 29.5195 0 29.2652 0 29C0 28.7348 0.10531 28.4805 0.292847 28.293C0.480383 28.1054 0.734784 28 1 28H13C13.2652 28 13.5196 28.1054 13.7072 28.293C13.8947 28.4805 14 28.7348 14 29ZM7 40H19C19.2652 40 19.5196 40.1054 19.7072 40.293C19.8947 40.4805 20 40.7348 20 41C20 41.2652 19.8947 41.5195 19.7072 41.707C19.5196 41.8946 19.2652 42 19 42H7C6.73478 42 6.48038 41.8946 6.29285 41.707C6.10531 41.5195 6 41.2652 6 41C6 40.7348 6.10531 40.4805 6.29285 40.293C6.48038 40.1054 6.73478 40 7 40ZM11 46H27C27.2652 46 27.5196 46.1054 27.7072 46.293C27.8947 46.4805 28 46.7348 28 47C28 47.2652 27.8947 47.5195 27.7072 47.707C27.5196 47.8946 27.2652 48 27 48H11C10.7348 48 10.4804 47.8946 10.2928 47.707C10.1053 47.5195 10 47.2652 10 47C10 46.7348 10.1053 46.4805 10.2928 46.293C10.4804 46.1054 10.7348 46 11 46ZM31.62 35C31.62 35.2652 31.5147 35.5195 31.3271 35.707C31.1396 35.8946 30.8852 36 30.62 36H11.37C11.1048 36 10.8504 35.8946 10.6628 35.707C10.4753 35.5195 10.37 35.2652 10.37 35C10.37 34.7348 10.4753 34.4805 10.6628 34.293C10.8504 34.1054 11.1048 34 11.37 34H30.62C30.8852 34 31.1396 34.1054 31.3271 34.293C31.5147 34.4805 31.62 34.7348 31.62 35ZM19 28H31C31.2652 28 31.5196 28.1054 31.7072 28.293C31.8947 28.4805 32 28.7348 32 29C32 29.2652 31.8947 29.5195 31.7072 29.707C31.5196 29.8946 31.2652 30 31 30H19C18.7348 30 18.4804 29.8946 18.2928 29.707C18.1053 29.5195 18 29.2652 18 29C18 28.7348 18.1053 28.4805 18.2928 28.293C18.4804 28.1054 18.7348 28 19 28ZM24 41C24 40.7348 24.1053 40.4805 24.2928 40.293C24.4804 40.1054 24.7348 40 25 40H39C39.2652 40 39.5196 40.1054 39.7072 40.293C39.8947 40.4805 40 40.7348 40 41C40 41.2652 39.8947 41.5195 39.7072 41.707C39.5196 41.8946 39.2652 42 39 42H25C24.7348 42 24.4804 41.8946 24.2928 41.707C24.1053 41.5195 24 41.2652 24 41ZM34 35C34 34.7348 34.1053 34.4805 34.2928 34.293C34.4804 34.1054 34.7348 34 35 34H41C41.2652 34 41.5196 34.1054 41.7072 34.293C41.8947 34.4805 42 34.7348 42 35C42 35.2652 41.8947 35.5195 41.7072 35.707C41.5196 35.8946 41.2652 36 41 36H35C34.7348 36 34.4804 35.8946 34.2928 35.707C34.1053 35.5195 34 35.2652 34 35Z" fill="#1B1B26"/>
</g>
</g>
</g>
<defs>
<clipPath id="clip0_108_6157">
<rect width="46" height="48" fill="white"/>
</clipPath>
<clipPath id="clip1_108_6157">
<rect width="46" height="48" fill="white"/>
</clipPath>
<clipPath id="clip2_108_6157">
<rect width="46" height="48" fill="white"/>
</clipPath>
</defs>
</svg>
