<svg width="46" height="48" viewBox="0 0 46 48" fill="none" xmlns="http://www.w3.org/2000/svg">
<g clip-path="url(#clip0_108_6150)">
<g clip-path="url(#clip1_108_6150)">
<g clip-path="url(#clip2_108_6150)">
<path fill-rule="evenodd" clip-rule="evenodd" d="M44.16 39.9094C42.9459 42.1706 41.1835 44.0907 39.0345 45.4937C36.8854 46.8966 34.4186 47.7377 31.86 47.9395C31.36 47.9795 30.85 48.0095 30.33 48.0095C29.81 48.0095 29.31 47.9795 28.8 47.9395C26.2415 47.7377 23.7746 46.8966 21.6255 45.4937C19.4765 44.0907 17.7141 42.1706 16.5 39.9094C15.353 37.777 14.7409 35.398 14.7165 32.9768C14.6921 30.5556 15.2561 28.1646 16.36 26.0095L29.47 0.469482C29.5586 0.32026 29.6845 0.196699 29.8353 0.11084C29.986 0.0249803 30.1565 -0.0202637 30.33 -0.0202637C30.5035 -0.0202637 30.6741 0.0249803 30.8249 0.11084C30.9757 0.196699 31.1014 0.32026 31.19 0.469482L44.3 26.0095C45.4039 28.1646 45.9679 30.5556 45.9435 32.9768C45.9191 35.398 45.3071 37.777 44.16 39.9094ZM42.58 26.9395L30.33 3.0896L18.09 26.9395C17.1237 28.7977 16.6293 30.8651 16.6502 32.9595C16.6711 35.0538 17.2068 37.1109 18.21 38.9495C19.2746 40.9212 20.8162 42.5949 22.694 43.8176C24.5718 45.0404 26.7261 45.7734 28.96 45.9495C29.872 46.0195 30.788 46.0195 31.7 45.9495C33.9339 45.7734 36.0882 45.0404 37.966 43.8176C39.8438 42.5949 41.3854 40.9212 42.45 38.9495C43.4524 37.1109 43.9885 35.0546 44.0112 32.9607C44.0338 30.8668 43.5424 28.7992 42.58 26.9395ZM8.55999 23.9395C8.30999 23.9595 8.05998 23.9695 7.79998 23.9695C7.53998 23.9695 7.28997 23.9595 7.03997 23.9395C5.76947 23.8282 4.54665 23.4025 3.48174 22.7007C2.41683 21.9989 1.54335 21.043 0.939991 19.9194C0.341005 18.8128 0.0165686 17.5785 -0.00605399 16.3203C-0.0286766 15.0621 0.251172 13.8169 0.809986 12.6895L6.92998 0.479492C7.0172 0.325594 7.14372 0.197702 7.29656 0.108643C7.4494 0.0195831 7.62308 -0.0273438 7.79998 -0.0273438C7.97687 -0.0273438 8.15068 0.0195831 8.30352 0.108643C8.45636 0.197702 8.58275 0.325594 8.66997 0.479492L14.79 12.6895C15.3512 13.8162 15.6325 15.0617 15.6099 16.3203C15.5873 17.5789 15.2614 18.8136 14.66 19.9194C14.0566 21.043 13.1831 21.9989 12.1182 22.7007C11.0533 23.4025 9.83048 23.8282 8.55999 23.9395ZM13.05 13.6096L7.79998 3.12939L2.54998 13.6096C2.13681 14.4424 1.93028 15.3623 1.94768 16.2917C1.96509 17.2212 2.20602 18.1328 2.65007 18.9495C3.09525 19.7928 3.74699 20.5096 4.54448 21.0325C5.34198 21.5554 6.25909 21.8674 7.21001 21.9395C7.60233 21.9795 7.99775 21.9795 8.39006 21.9395C9.34098 21.8674 10.2581 21.5554 11.0556 21.0325C11.8531 20.5096 12.5048 19.7928 12.95 18.9495C13.3941 18.1328 13.635 17.2212 13.6524 16.2917C13.6698 15.3623 13.4631 14.4424 13.05 13.6096Z" fill="#1B1B26"/>
</g>
</g>
</g>
<defs>
<clipPath id="clip0_108_6150">
<rect width="45.97" height="48" fill="white"/>
</clipPath>
<clipPath id="clip1_108_6150">
<rect width="45.97" height="48" fill="white"/>
</clipPath>
<clipPath id="clip2_108_6150">
<rect width="45.97" height="48" fill="white"/>
</clipPath>
</defs>
</svg>
