<svg width="44" height="48" viewBox="0 0 44 48" fill="none" xmlns="http://www.w3.org/2000/svg">
<g clip-path="url(#clip0_108_6143)">
<g clip-path="url(#clip1_108_6143)">
<g clip-path="url(#clip2_108_6143)">
<path fill-rule="evenodd" clip-rule="evenodd" d="M43.0101 22.0005H39.1101C38.8448 22.0005 38.5906 21.8951 38.403 21.7075C38.2155 21.52 38.1101 21.2657 38.1101 21.0005C38.1101 20.7353 38.2155 20.481 38.403 20.2935C38.5906 20.1059 38.8448 20.0005 39.1101 20.0005H43.0101C43.2753 20.0005 43.5297 20.1059 43.7172 20.2935C43.9048 20.481 44.0101 20.7353 44.0101 21.0005C44.0101 21.2657 43.9048 21.52 43.7172 21.7075C43.5297 21.8951 43.2753 22.0005 43.0101 22.0005ZM35.22 10.3904C35.1301 10.4822 35.0227 10.5552 34.9042 10.605C34.7858 10.6548 34.6586 10.6804 34.5301 10.6804C34.4016 10.6804 34.2743 10.6548 34.1558 10.605C34.0374 10.5552 33.93 10.4822 33.84 10.3904C33.6571 10.2013 33.5549 9.94865 33.5549 9.68555C33.5549 9.42245 33.6571 9.16957 33.84 8.98047L36.6 6.15039C36.6896 6.05785 36.7968 5.98434 36.9154 5.93408C37.0339 5.88382 37.1614 5.85791 37.2901 5.85791C37.4189 5.85791 37.5462 5.88382 37.6647 5.93408C37.7833 5.98434 37.8905 6.05785 37.9801 6.15039C38.163 6.33949 38.2652 6.59237 38.2652 6.85547C38.2652 7.11857 38.163 7.37144 37.9801 7.56055L35.22 10.3904ZM23.4801 34.0005C20.8108 34.0022 18.2121 33.1431 16.07 31.5505C15.8576 31.3946 15.7153 31.1609 15.6741 30.9006C15.6329 30.6403 15.6962 30.3743 15.85 30.1604C15.922 30.0532 16.015 29.9619 16.1234 29.8918C16.2318 29.8218 16.3534 29.7745 16.4807 29.7529C16.6079 29.7314 16.7382 29.7361 16.8636 29.7666C16.989 29.7971 17.1069 29.8528 17.21 29.9304C19.0231 31.2767 21.2218 32.0027 23.4801 32.0005C26.3974 32.0005 29.1954 30.8415 31.2583 28.7786C33.3212 26.7157 34.4801 23.9179 34.4801 21.0005C34.4801 18.0831 33.3212 15.2853 31.2583 13.2224C29.1954 11.1595 26.3974 10.0005 23.4801 10.0005C21.2229 9.99483 19.024 10.7173 17.21 12.0605C17.1075 12.1386 16.9902 12.195 16.8652 12.2263C16.7402 12.2576 16.6101 12.263 16.4829 12.2424C16.3556 12.2219 16.2339 12.1756 16.1251 12.1064C16.0163 12.0373 15.9227 11.947 15.85 11.8406C15.6966 11.6247 15.6338 11.3573 15.6749 11.0957C15.716 10.8341 15.8578 10.5988 16.07 10.4404C18.2132 8.85105 20.8119 7.99541 23.4801 8.00049C26.9279 8.00049 30.2345 9.37013 32.6724 11.8081C35.1104 14.2461 36.4801 17.5527 36.4801 21.0005C36.4801 24.4483 35.1104 27.7549 32.6724 30.1929C30.2345 32.6308 26.9279 34.0005 23.4801 34.0005ZM23.4801 6.00049C23.2177 5.99732 22.9672 5.8903 22.7835 5.70288C22.5998 5.51546 22.4979 5.2629 22.5001 5.00049V1.00049C22.5001 0.741902 22.6027 0.493883 22.7856 0.311035C22.9684 0.128187 23.2165 0.0253906 23.475 0.0253906C23.7336 0.0253906 23.9817 0.128187 24.1645 0.311035C24.3473 0.493883 24.45 0.741902 24.45 1.00049V5.00049C24.4521 5.12988 24.4288 5.25834 24.3812 5.37866C24.3335 5.49899 24.2627 5.60877 24.1726 5.70166C24.0825 5.79455 23.9748 5.8689 23.856 5.92017C23.7372 5.97144 23.6094 5.99866 23.4801 6.00049ZM14.2701 46.0505C13.227 46.8988 12.0015 47.4936 10.6898 47.7886C9.37807 48.0835 8.01584 48.0705 6.71003 47.7505C5.14563 47.3601 3.7186 46.5474 2.58467 45.4011C1.45073 44.2548 0.653543 42.819 0.280102 41.2505C-0.16862 39.4553 -0.0608186 37.566 0.589306 35.8335C1.23943 34.101 2.40115 32.6074 3.92012 31.5505V5.00049C3.90697 4.35066 4.02355 3.70477 4.26313 3.10059C4.50272 2.4964 4.86046 1.94615 5.31538 1.48193C5.7703 1.01772 6.31321 0.648735 6.91243 0.396973C7.51164 0.145211 8.15517 0.015625 8.80513 0.015625C9.45508 0.015625 10.0985 0.145211 10.6977 0.396973C11.2969 0.648735 11.8398 1.01772 12.2948 1.48193C12.7497 1.94615 13.1074 2.4964 13.347 3.10059C13.5866 3.70477 13.7032 4.35066 13.69 5.00049V31.5605C14.8434 32.3629 15.7952 33.4216 16.4707 34.6536C17.1461 35.8856 17.5269 37.2575 17.5831 38.6614C17.6393 40.0653 17.3693 41.4631 16.7945 42.7451C16.2197 44.0272 15.3557 45.1586 14.2701 46.0505ZM12.22 32.9705C12.0716 32.8811 11.9485 32.7551 11.8627 32.6045C11.7769 32.4539 11.7313 32.2839 11.7301 32.1106V5.00049C11.7403 4.60927 11.672 4.21989 11.5294 3.85547C11.3867 3.49105 11.1726 3.15898 10.8995 2.87866C10.6264 2.59835 10.3 2.37551 9.9394 2.22339C9.57883 2.07127 9.19147 1.99292 8.80012 1.99292C8.40877 1.99292 8.02129 2.07127 7.66072 2.22339C7.30015 2.37551 6.97372 2.59835 6.70063 2.87866C6.42755 3.15898 6.2134 3.49105 6.07075 3.85547C5.9281 4.21989 5.85985 4.60927 5.87007 5.00049V32.1106C5.87107 32.2832 5.82735 32.4531 5.74324 32.6038C5.65912 32.7545 5.53751 32.8807 5.39009 32.9705C4.0798 33.7449 3.05758 34.9253 2.47834 36.3328C1.89911 37.7403 1.79445 39.2982 2.18013 40.7705C2.44316 41.8879 2.98543 42.9203 3.75618 43.771C4.52693 44.6217 5.50089 45.2628 6.58699 45.6345C7.67308 46.0062 8.83577 46.0963 9.96614 45.8962C11.0965 45.6961 12.1576 45.2124 13.0501 44.4905C13.9261 43.7733 14.6169 42.8562 15.0644 41.8164C15.5119 40.7766 15.703 39.6445 15.6217 38.5154C15.5403 37.3863 15.1888 36.2931 14.5969 35.3281C14.0049 34.3632 13.1897 33.5546 12.22 32.9705ZM8.81013 44.0005C7.58764 43.9709 6.41806 43.4952 5.5218 42.6633C4.62554 41.8314 4.06438 40.7006 3.94392 39.4836C3.82346 38.2667 4.15199 37.0479 4.86775 36.0564C5.58351 35.0649 6.63707 34.3693 7.83003 34.1006V5.00049C7.83003 4.7419 7.93283 4.49388 8.11567 4.31104C8.29852 4.12819 8.54654 4.02539 8.80513 4.02539C9.06371 4.02539 9.31161 4.12819 9.49446 4.31104C9.67731 4.49388 9.7801 4.7419 9.7801 5.00049V34.1006C10.9724 34.3689 12.0256 35.0637 12.7415 36.0542C13.4575 37.0447 13.7869 38.2627 13.6677 39.479C13.5485 40.6953 12.989 41.8262 12.0944 42.6589C11.1998 43.4916 10.0319 43.9687 8.81013 44.0005ZM8.81013 36.0005C8.214 35.9866 7.62718 36.1506 7.12471 36.4717C6.62224 36.7928 6.22692 37.2564 5.98909 37.8032C5.75125 38.35 5.68165 38.9553 5.78938 39.5417C5.89711 40.1282 6.17719 40.6691 6.59382 41.0957C7.01046 41.5223 7.54484 41.8152 8.12861 41.9368C8.71239 42.0583 9.31914 42.0029 9.87141 41.7781C10.4237 41.5532 10.8964 41.1691 11.2292 40.6743C11.562 40.1796 11.7399 39.5968 11.7401 39.0005C11.7483 38.2144 11.4445 37.4572 10.8952 36.8948C10.3459 36.3324 9.59618 36.0108 8.81013 36.0005ZM23.4801 36.0005C23.6094 36.0023 23.7372 36.0295 23.856 36.0808C23.9748 36.1321 24.0825 36.2064 24.1726 36.2993C24.2627 36.3922 24.3335 36.502 24.3812 36.6223C24.4288 36.7426 24.4521 36.8711 24.45 37.0005V41.0005C24.45 41.2591 24.3473 41.5071 24.1645 41.6899C23.9817 41.8728 23.7336 41.9756 23.475 41.9756C23.2165 41.9756 22.9684 41.8728 22.7856 41.6899C22.6027 41.5071 22.5001 41.2591 22.5001 41.0005V37.0005C22.4979 36.7381 22.5998 36.4855 22.7835 36.2981C22.9672 36.1107 23.2177 36.0037 23.4801 36.0005ZM35.22 31.6106L37.9801 34.4304C38.1629 34.6216 38.2651 34.8758 38.2651 35.1404C38.2651 35.4049 38.1629 35.6595 37.9801 35.8506C37.8901 35.9424 37.7827 36.0152 37.6643 36.0649C37.5458 36.1147 37.4186 36.1404 37.2901 36.1404C37.1616 36.1404 37.0343 36.1147 36.9158 36.0649C36.7974 36.0152 36.69 35.9424 36.6 35.8506L33.84 33.0205C33.6571 32.8314 33.5549 32.5785 33.5549 32.3154C33.5549 32.0523 33.6571 31.7997 33.84 31.6106C33.9296 31.5181 34.0368 31.4443 34.1553 31.394C34.2739 31.3438 34.4013 31.3179 34.5301 31.3179C34.6589 31.3179 34.7863 31.3438 34.9049 31.394C35.0234 31.4443 35.1305 31.5181 35.22 31.6106Z" fill="#1B1B26"/>
</g>
</g>
</g>
<defs>
<clipPath id="clip0_108_6143">
<rect width="44" height="48" fill="white"/>
</clipPath>
<clipPath id="clip1_108_6143">
<rect width="44" height="48" fill="white"/>
</clipPath>
<clipPath id="clip2_108_6143">
<rect width="44" height="48" fill="white"/>
</clipPath>
</defs>
</svg>
