<svg width="48" height="48" viewBox="0 0 48 48" fill="none" xmlns="http://www.w3.org/2000/svg">
<g clip-path="url(#clip0_108_6164)">
<g clip-path="url(#clip1_108_6164)">
<g clip-path="url(#clip2_108_6164)">
<path fill-rule="evenodd" clip-rule="evenodd" d="M47 25H42C41.7348 25 41.4804 24.8946 41.2928 24.707C41.1053 24.5195 41 24.2652 41 24C41 23.7348 41.1053 23.4805 41.2928 23.293C41.4804 23.1054 41.7348 23 42 23H47C47.2652 23 47.5196 23.1054 47.7072 23.293C47.8947 23.4805 48 23.7348 48 24C48 24.2652 47.8947 24.5195 47.7072 24.707C47.5196 24.8946 47.2652 25 47 25ZM37.4301 11.98C37.2438 12.1647 36.9923 12.2689 36.73 12.27C36.4647 12.269 36.2102 12.165 36.02 11.98C35.8327 11.7912 35.7275 11.536 35.7275 11.27C35.7275 11.004 35.8327 10.7489 36.02 10.5601L39.85 6.72998C40.0373 6.54373 40.2909 6.43921 40.5551 6.43921C40.8192 6.43921 41.0726 6.54373 41.26 6.72998C41.4474 6.91879 41.5525 7.17395 41.5525 7.43994C41.5525 7.70593 41.4474 7.96109 41.26 8.1499L37.4301 11.98ZM24 39C21.0333 39 18.1332 38.1201 15.6665 36.4719C13.1998 34.8237 11.2772 32.4811 10.1418 29.7402C9.00653 26.9993 8.70943 23.9834 9.28821 21.0737C9.86699 18.164 11.2956 15.4911 13.3934 13.3933C15.4912 11.2955 18.1639 9.86711 21.0736 9.28833C23.9833 8.70955 26.9993 9.00653 29.7402 10.1418C32.4811 11.2772 34.8238 13.1998 36.472 15.6665C38.1203 18.1332 39 21.0333 39 24C38.9952 27.9768 37.4133 31.7893 34.6013 34.6013C31.7893 37.4133 27.9768 38.9952 24 39ZM24 11C21.4288 11 18.9154 11.7625 16.7776 13.1909C14.6397 14.6194 12.9736 16.6497 11.9896 19.0251C11.0057 21.4006 10.7481 24.0144 11.2498 26.5361C11.7514 29.0579 12.9895 31.3743 14.8076 33.1924C16.6257 35.0105 18.9421 36.2486 21.4639 36.7502C23.9856 37.2519 26.5994 36.9944 28.9749 36.0105C31.3503 35.0266 33.3806 33.3603 34.8091 31.2224C36.2375 29.0846 37 26.5712 37 24C36.9968 20.5532 35.6261 17.2483 33.1888 14.811C30.7516 12.3738 27.4468 11.0032 24 11ZM24 7C23.7348 7 23.4804 6.89457 23.2928 6.70703C23.1053 6.5195 23 6.26522 23 6V1C23 0.734784 23.1053 0.480505 23.2928 0.292969C23.4804 0.105432 23.7348 0 24 0C24.2652 0 24.5196 0.105432 24.7072 0.292969C24.8947 0.480505 25 0.734784 25 1V6C25 6.26522 24.8947 6.5195 24.7072 6.70703C24.5196 6.89457 24.2652 7 24 7ZM11.27 12.27C11.0077 12.2689 10.7562 12.1647 10.5699 11.98L6.73999 8.1499C6.55264 7.96109 6.44751 7.70593 6.44751 7.43994C6.44751 7.17395 6.55264 6.91879 6.73999 6.72998C6.92735 6.54373 7.18076 6.43921 7.44495 6.43921C7.70913 6.43921 7.96266 6.54373 8.15002 6.72998L11.98 10.5601C12.1673 10.7489 12.2725 11.004 12.2725 11.27C12.2725 11.536 12.1673 11.7912 11.98 11.98C11.7898 12.165 11.5353 12.269 11.27 12.27ZM7 24C7 24.2652 6.89469 24.5195 6.70715 24.707C6.51962 24.8946 6.26522 25 6 25H1C0.734784 25 0.480383 24.8946 0.292847 24.707C0.10531 24.5195 0 24.2652 0 24C0 23.7348 0.10531 23.4805 0.292847 23.293C0.480383 23.1054 0.734784 23 1 23H6C6.26522 23 6.51962 23.1054 6.70715 23.293C6.89469 23.4805 7 23.7348 7 24ZM10.5699 36.02C10.6596 35.9153 10.77 35.8303 10.894 35.7703C11.0181 35.7102 11.1532 35.6765 11.2909 35.6711C11.4286 35.6658 11.566 35.689 11.6943 35.7393C11.8227 35.7895 11.9392 35.8659 12.0366 35.9634C12.1341 36.0608 12.2103 36.1773 12.2606 36.3057C12.3109 36.434 12.3342 36.5713 12.3289 36.709C12.3235 36.8467 12.2898 36.9819 12.2297 37.106C12.1697 37.23 12.0847 37.3403 11.98 37.4299L8.15002 41.26C8.05719 41.3535 7.94644 41.4275 7.82446 41.4773C7.70249 41.5271 7.57169 41.5518 7.43994 41.55C7.30969 41.5517 7.18052 41.5269 7.06018 41.4771C6.93984 41.4272 6.83089 41.3533 6.73999 41.26C6.55374 41.0726 6.44922 40.8191 6.44922 40.5549C6.44922 40.2907 6.55374 40.0375 6.73999 39.8501L10.5699 36.02ZM24 41C24.2652 41 24.5196 41.1054 24.7072 41.293C24.8947 41.4805 25 41.7348 25 42V47C25 47.2652 24.8947 47.5195 24.7072 47.707C24.5196 47.8946 24.2652 48 24 48C23.7348 48 23.4804 47.8946 23.2928 47.707C23.1053 47.5195 23 47.2652 23 47V42C23 41.7348 23.1053 41.4805 23.2928 41.293C23.4804 41.1054 23.7348 41 24 41ZM37.4301 36.02L41.26 39.8501C41.4463 40.0375 41.5508 40.2907 41.5508 40.5549C41.5508 40.8191 41.4463 41.0726 41.26 41.26C41.0726 41.4463 40.8192 41.5508 40.5551 41.5508C40.2909 41.5508 40.0373 41.4463 39.85 41.26L36.02 37.4299C35.9153 37.3403 35.8303 37.23 35.7703 37.106C35.7102 36.9819 35.6765 36.8467 35.6711 36.709C35.6658 36.5713 35.6891 36.434 35.7394 36.3057C35.7897 36.1773 35.8659 36.0608 35.9634 35.9634C36.0608 35.8659 36.1773 35.7895 36.3057 35.7393C36.434 35.689 36.5714 35.6658 36.7091 35.6711C36.8468 35.6765 36.9819 35.7102 37.106 35.7703C37.23 35.8303 37.3404 35.9153 37.4301 36.02Z" fill="#1B1B26"/>
</g>
</g>
</g>
<defs>
<clipPath id="clip0_108_6164">
<rect width="48" height="48" fill="white"/>
</clipPath>
<clipPath id="clip1_108_6164">
<rect width="48" height="48" fill="white"/>
</clipPath>
<clipPath id="clip2_108_6164">
<rect width="48" height="48" fill="white"/>
</clipPath>
</defs>
</svg>
