<svg width="176" height="80" viewBox="0 0 176 80" fill="none" xmlns="http://www.w3.org/2000/svg">
<g clip-path="url(#clip0_2008_687)">
<path d="M58.0674 19.9293H57.2915C55.8579 8.58754 46.1591 0.0816829 34.6667 0.0872601C23.1742 0.0928429 13.4838 8.60811 12.0614 19.9512C5.29801 20.3663 0.0203929 25.9328 0 32.6728C0.0207862 39.7023 5.74477 45.3956 12.812 45.4163H16.2469V54.5143H12.8247C12.2154 52.1656 9.93241 50.6445 7.51682 50.9777C5.10122 51.3109 3.32067 53.3927 3.37704 55.8177C3.43341 58.2427 5.3088 60.2404 7.73729 60.4622C10.1658 60.6841 12.3756 59.0596 12.8751 56.6853H17.2278H17.3382C17.9366 56.6837 18.4226 56.2044 18.4295 55.6093V45.4132H25.1888V58.1504C22.8274 58.7565 21.2981 61.0272 21.6331 63.4299C21.9682 65.8326 24.0611 67.6036 26.4992 67.5475C28.9372 67.4915 30.9456 65.6261 31.1687 63.2106C31.3917 60.7951 29.7585 58.5971 27.3715 58.1002V45.4163H33.8027V70.5144C31.4413 71.1204 29.912 73.3911 30.2471 75.7938C30.5821 78.1965 32.675 79.9675 35.1131 79.9115C37.5511 79.8554 39.5595 77.99 39.7826 75.5745C40.0056 73.159 38.3724 70.961 35.9854 70.4642V45.4163H34.1844H34.1654H34.6764C35.3388 45.4163 35.9927 45.3881 36.6383 45.3316V45.4163H42.6311V61.4163C40.271 62.0216 38.7423 64.2909 39.077 66.6922C39.4117 69.0935 41.5034 70.8635 43.9401 70.8074C46.3767 70.7513 48.3838 68.8868 48.6064 66.4727C48.829 64.0586 47.1963 61.8621 44.8106 61.3661V45.4289H50.6994V55.6093C50.7011 56.208 51.1887 56.693 51.7907 56.6947H51.8979H56.2538C56.7533 59.0672 58.9617 60.6903 61.3884 60.4684C63.8152 60.2465 65.6891 58.2503 65.7455 55.827C65.8018 53.4037 64.0226 51.3234 61.6088 50.9902C59.1949 50.657 56.9134 52.1768 56.3042 54.5238H52.8883V45.4257H58.0674C65.1347 45.405 70.8586 39.7117 70.8794 32.6822C70.8638 25.649 65.1383 19.9499 58.0674 19.9293ZM8.17864 58.4328C7.07456 58.434 6.07855 57.7733 5.65545 56.759C5.23235 55.7447 5.46558 54.5767 6.24627 53.8002C7.02697 53.0236 8.20123 52.7917 9.22102 53.2125C10.2408 53.6333 10.9051 54.624 10.9038 55.7222C10.9038 57.2192 9.6837 58.4328 8.17864 58.4328ZM29.1157 62.7716C29.1157 64.2704 27.8942 65.4853 26.3874 65.4853C24.8806 65.4853 23.6591 64.2704 23.6591 62.7716C23.6591 61.2729 24.8806 60.0579 26.3874 60.0579C27.1112 60.057 27.8057 60.3427 28.3175 60.8518C28.8294 61.3609 29.1165 62.0516 29.1157 62.7716ZM35.0107 72.4249C36.5154 72.4267 37.7339 73.641 37.7328 75.1376C37.7316 76.6342 36.5112 77.8467 35.0065 77.8461C33.5019 77.8455 32.2824 76.6321 32.2824 75.1355C32.2824 74.4161 32.57 73.7262 33.0817 73.2177C33.5935 72.7093 34.2874 72.4241 35.0107 72.4249ZM46.5675 66.0249C46.5675 67.1213 45.9035 68.1096 44.8852 68.5292C43.8668 68.9487 42.6947 68.7168 41.9153 67.9416C41.1359 67.1664 40.9028 66.0005 41.3246 64.9876C41.7464 63.9748 42.7401 63.3144 43.8423 63.3144C45.3449 63.3178 46.5611 64.5304 46.5611 66.0249H46.5675ZM60.9629 53.0085C62.0667 53.0072 63.0625 53.6676 63.4857 54.6815C63.909 55.6955 63.6764 56.8632 62.8963 57.64C62.1163 58.4167 60.9426 58.6495 59.9227 58.2296C58.9028 57.8098 58.2377 56.8201 58.2377 55.7222C58.236 54.2264 59.4527 53.0119 60.9566 53.0085H60.9629ZM36.0989 43.3551H12.812C6.9001 43.3294 2.11394 38.5688 2.08803 32.6885C2.10447 27.1528 6.35456 22.5394 11.8973 22.0406V22.0783H12.5282C12.5282 22.0783 13.7362 21.8242 13.9538 20.883C13.9702 20.8408 14.0051 20.8084 14.0485 20.7951C15.0978 9.90128 24.5247 1.72298 35.5181 2.16911C46.5115 2.61525 55.2372 11.5302 55.3908 22.4729C55.5445 33.4156 47.0724 42.5694 36.0958 43.3206L36.0989 43.3551ZM68.8135 32.6885C68.7962 38.581 63.9979 43.3536 58.0737 43.3708H44.1955C52.2922 39.6689 57.4773 31.6131 57.4681 22.7496C57.4681 22.4955 57.4681 22.2414 57.4681 21.9904H58.0831C64.0074 22.0077 68.8056 26.7802 68.8229 32.6728L68.8135 32.6885Z" fill="#3EABE1"/>
<path d="M88.4638 44.2209H82.7863V51.6122H80.6699V34.8719H89.4321V36.6758H82.7769V42.4138H88.4543L88.4638 44.2209Z" fill="white"/>
<path d="M94.1158 35.8726C94.126 36.1855 94.023 36.4916 93.8256 36.7354C93.6015 36.977 93.2783 37.103 92.9488 37.0774C92.6222 37.1019 92.3024 36.9759 92.0814 36.7354C91.884 36.4916 91.7811 36.1855 91.7912 35.8726C91.7822 35.5561 91.8848 35.2464 92.0814 34.9974C92.2976 34.7487 92.6191 34.6161 92.9488 34.6397C93.2813 34.6181 93.6047 34.7528 93.8225 35.0036C94.0199 35.25 94.1238 35.5577 94.1158 35.8726ZM93.9549 51.6123H91.9079V39.173H93.9549V51.6123Z" fill="white"/>
<path d="M101.642 51.8444C100.088 51.8444 98.8933 51.3822 98.0585 50.4577C97.2258 49.5166 96.7969 48.1801 96.7969 46.3793V44.8734C96.7969 43.0183 97.2027 41.5636 98.0144 40.5095C98.823 39.4632 100.096 38.8772 101.421 38.9409C102.893 38.9409 103.987 39.4052 104.704 40.3338C105.421 41.2624 105.791 42.7077 105.815 44.6695V46.0028H98.8218V46.2883C98.8218 47.6248 99.0741 48.5953 99.5788 49.1997C100.124 49.8228 100.93 50.1579 101.758 50.1064C102.303 50.1154 102.843 49.9994 103.335 49.7675C103.837 49.5054 104.276 49.1383 104.622 48.6915L105.688 49.9809C104.811 51.2232 103.463 51.8444 101.642 51.8444ZM101.411 40.6883C100.672 40.635 99.9574 40.9632 99.5189 41.5574C99.112 42.1377 98.8881 43.035 98.825 44.2554H103.771V43.9793C103.718 42.7955 103.508 41.9516 103.14 41.4475C102.731 40.9189 102.08 40.633 101.411 40.6883Z" fill="white"/>
<path d="M110.464 51.6122H108.417V33.9621H110.464V51.6122Z" fill="white"/>
<path d="M113.249 44.8295C113.249 42.9137 113.609 41.4496 114.331 40.4373C115.037 39.439 116.209 38.8705 117.434 38.9315C118.557 38.8955 119.618 39.4449 120.232 40.3809V33.9621H122.276V51.6217H120.405L120.301 50.2883C119.701 51.2942 118.597 51.8952 117.422 51.857C116.216 51.8996 115.07 51.3345 114.375 50.3542C113.639 49.3545 113.263 47.9427 113.249 46.1189V44.8295ZM115.296 45.984C115.296 47.377 115.504 48.4028 115.927 49.0554C116.349 49.7079 117.021 50.0373 117.961 50.0373C118.977 50.0373 119.736 49.5281 120.238 48.5095V42.235C119.715 41.2373 118.958 40.7417 117.97 40.7417C116.983 40.7417 116.352 41.0554 115.936 41.7236C115.52 42.3919 115.305 43.3832 115.305 44.7385L115.296 45.984Z" fill="white"/>
<path d="M128.439 34.8719L132.833 48.5315L137.226 34.8719H139.955V51.6122H137.835V45.093L138.031 38.5613L133.615 51.6122H131.997L127.616 38.6083L127.811 45.093V51.6122H125.695V34.8719H128.439Z" fill="white"/>
<path d="M145.676 35.8726C145.687 36.1855 145.584 36.4916 145.386 36.7354C145.162 36.977 144.839 37.103 144.509 37.0773C144.183 37.1024 143.863 36.9762 143.642 36.7354C143.445 36.4916 143.342 36.1855 143.352 35.8726C143.343 35.5561 143.445 35.2464 143.642 34.9973C143.872 34.7669 144.185 34.6372 144.511 34.6372C144.837 34.6372 145.15 34.7669 145.38 34.9973C145.581 35.2444 145.686 35.555 145.676 35.8726ZM145.515 51.6122H143.468V39.173H145.515V51.6122Z" fill="white"/>
<path d="M153.076 50.1064C153.683 50.1354 154.274 49.9074 154.703 49.4789C155.143 48.9867 155.382 48.3491 155.375 47.6907H157.305C157.291 48.811 156.832 49.8801 156.028 50.6648C155.246 51.4412 154.18 51.8671 153.076 51.8444C151.524 51.8444 150.342 51.3592 149.53 50.3887C148.719 49.4183 148.313 47.9751 148.313 46.0593V44.6915C148.313 42.8091 148.717 41.3817 149.524 40.4091C150.332 39.4366 151.511 38.9472 153.063 38.9409C154.206 38.8868 155.317 39.3272 156.11 40.1487C156.861 40.9539 157.259 42.0541 157.305 43.4491H155.375C155.327 42.5289 155.105 41.8387 154.71 41.3785C154.295 40.9117 153.689 40.6578 153.063 40.6883C152.155 40.6883 151.481 40.9853 151.041 41.5793C150.602 42.1733 150.374 43.149 150.357 44.5064V46.0938C150.357 47.5579 150.574 48.5932 151.01 49.1997C151.445 49.8062 152.134 50.1085 153.076 50.1064Z" fill="white"/>
<path d="M164.831 41.0805C164.526 41.0248 164.217 40.9975 163.907 40.9989C162.856 40.9989 162.12 41.5699 161.699 42.7119V51.6122H159.655V39.173H161.642L161.677 40.4279C162.226 39.4303 163.001 38.9315 164.002 38.9315C164.28 38.9213 164.557 38.9772 164.809 39.0946L164.831 41.0805Z" fill="white"/>
<path d="M166.222 44.817C166.222 43.0099 166.664 41.5783 167.547 40.5221C168.403 39.4851 169.697 38.905 171.045 38.9534C172.386 38.9063 173.674 39.4741 174.54 40.4938C175.423 41.5228 175.876 42.9221 175.899 44.6915V46.0028C175.899 47.8036 175.46 49.229 174.581 50.2789C173.696 51.2741 172.427 51.8479 171.092 51.857C169.756 51.8659 168.48 51.3092 167.582 50.326C166.705 49.3074 166.252 47.9281 166.222 46.1879V44.817ZM168.269 45.9903C168.269 47.2703 168.522 48.2763 169.026 49.0083C169.465 49.7057 170.24 50.1226 171.067 50.1064C172.871 50.1064 173.799 48.8107 173.852 46.2193V44.817C173.852 43.5474 173.598 42.5414 173.089 41.7989C172.651 41.0967 171.875 40.675 171.045 40.6883C170.222 40.6775 169.454 41.0998 169.026 41.7989C168.522 42.5393 168.269 43.5411 168.269 44.8044V45.9903Z" fill="white"/>
</g>
<defs>
<clipPath id="clip0_2008_687">
<rect width="176" height="80" fill="white"/>
</clipPath>
</defs>
</svg>
