<svg width="24" height="24" viewBox="0 0 24 24" fill="none" xmlns="http://www.w3.org/2000/svg">
<g clip-path="url(#clip0_2008_727)">
<g clip-path="url(#clip1_2008_727)">
<g clip-path="url(#clip2_2008_727)">
<g clip-path="url(#clip3_2008_727)">
<path d="M12 1.56C17.7659 1.56 22.44 6.23415 22.44 12C22.44 17.7659 17.7659 22.44 12 22.44C6.23415 22.44 1.56 17.7659 1.56 12C1.56661 6.23689 6.23689 1.56661 12 1.56ZM12 0C5.37258 0 0 5.37258 0 12C0 18.6274 5.37258 24 12 24C18.6274 24 24 18.6274 24 12C24 8.8174 22.7357 5.76515 20.4853 3.51472C18.2348 1.26428 15.1826 0 12 0Z" fill="white"/>
<path d="M6.57812 15.9307C6.51016 16.01 4 14.3406 4 11.3453C4 8.35001 6.07656 4 11.875 4C17.6734 4 19 8.93609 19 11.182C19 13.4278 17.7437 18.3879 13.1781 18.3879C10.9187 18.3879 10.2789 17.0788 10.2789 17.0788C10.2789 17.0788 9.37422 21.5658 8.09219 22.9613C8.09219 22.9613 6.53594 23.6531 7.22031 19.1854C7.26953 18.8635 8.70391 13.2885 8.70391 13.2885C8.46047 12.6393 8.3365 11.9495 8.33828 11.254C8.33828 10.0842 9.36484 8.5878 10.4852 8.5878C11.6055 8.5878 11.9453 9.6711 11.9453 10.3148C11.9453 10.9586 10.9187 14.0355 10.9187 14.7369C10.9187 15.4383 11.4672 16.4183 12.7445 16.4183C14.0219 16.4183 16.375 15.0876 16.375 11.3525C16.375 7.6174 13.7031 6.12816 11.7344 6.12816C9.76562 6.12816 6.16328 7.32916 6.16328 11.1579C6.16328 13.1228 7.07734 14.0403 7.07734 14.0403C7.07734 14.0403 7.22031 15.1813 6.57812 15.9307Z" fill="white"/>
</g>
</g>
</g>
</g>
<defs>
<clipPath id="clip0_2008_727">
<rect width="24" height="24" fill="white"/>
</clipPath>
<clipPath id="clip1_2008_727">
<rect width="24" height="24" fill="white"/>
</clipPath>
<clipPath id="clip2_2008_727">
<rect width="24" height="24" fill="white"/>
</clipPath>
<clipPath id="clip3_2008_727">
<rect width="24" height="24" fill="white"/>
</clipPath>
</defs>
</svg>
