<svg width="24" height="24" viewBox="0 0 24 24" fill="none" xmlns="http://www.w3.org/2000/svg">
<g clip-path="url(#clip0_2008_712)">
<g clip-path="url(#clip1_2008_712)">
<g clip-path="url(#clip2_2008_712)">
<path d="M14.8641 6.04374C14.1063 6.04361 13.3787 6.34819 12.838 6.89193C12.2972 7.43567 11.9865 8.17511 11.9726 8.95114L11.9447 10.5595C11.9431 10.6459 11.9236 10.7309 11.8877 10.8091C11.8517 10.8872 11.8 10.9566 11.736 11.0128C11.6719 11.0691 11.597 11.1108 11.5162 11.1353C11.4353 11.1598 11.3503 11.1664 11.2667 11.1549L9.71031 10.9384C7.66235 10.6525 5.70013 9.68641 3.81769 8.08004C3.22145 11.4603 4.38601 13.8019 7.19074 15.6084L8.9326 16.7297C9.01536 16.783 9.08412 16.8562 9.13286 16.943C9.18159 17.0298 9.20882 17.1275 9.21217 17.2275C9.21551 17.3276 9.19487 17.427 9.15204 17.517C9.10922 17.607 9.04551 17.6848 8.9665 17.7438L7.37918 18.9315C8.3234 18.9917 9.21975 18.9488 9.96356 18.7977C14.6677 17.8357 17.7955 14.2104 17.7955 8.23016C17.7955 7.74202 16.7864 6.04374 14.8641 6.04374ZM9.97851 8.91335C9.99592 7.92895 10.2965 6.97169 10.8425 6.16141C11.3886 5.35113 12.1559 4.72384 13.0484 4.35809C13.9409 3.99234 14.9188 3.90438 15.8599 4.10522C16.801 4.30606 17.6633 4.78677 18.3389 5.48718C19.0478 5.48207 19.651 5.66589 21 4.8285C20.666 6.50329 20.5015 7.23039 19.7896 8.23016C19.7896 16.0343 15.1064 19.8291 10.3544 20.8003C7.09602 21.4661 2.35799 20.3724 1 18.9202C1.69196 18.8651 4.50366 18.5556 6.12887 17.3373C4.75393 16.4091 -0.718929 13.1105 2.87746 4.24232C4.56548 6.26126 6.27743 7.63581 8.01231 8.36496C9.16691 8.85003 9.45007 8.83982 9.97951 8.91437L9.97851 8.91335Z" fill="white"/>
</g>
</g>
</g>
<defs>
<clipPath id="clip0_2008_712">
<rect width="24" height="24" fill="white"/>
</clipPath>
<clipPath id="clip1_2008_712">
<rect width="24" height="24" fill="white"/>
</clipPath>
<clipPath id="clip2_2008_712">
<rect width="24" height="24" fill="white"/>
</clipPath>
</defs>
</svg>
